<svg width="24" height="24" viewBox="0 0 24 24" fill="none" xmlns="http://www.w3.org/2000/svg">
<path d="M9.86009 18C9.72297 17.9995 9.58741 17.9709 9.46183 17.9158C9.33624 17.8608 9.22333 17.7805 9.13009 17.68L4.27009 12.51C4.08841 12.3164 3.99109 12.0585 3.99953 11.7932C4.00797 11.5278 4.12148 11.2766 4.31509 11.095C4.50869 10.9133 4.76654 10.816 5.03191 10.8244C5.29727 10.8329 5.54841 10.9464 5.73009 11.14L9.85009 15.53L18.2601 6.32997C18.3454 6.22369 18.4516 6.13599 18.5721 6.07223C18.6926 6.00848 18.8248 5.97004 18.9607 5.95925C19.0966 5.94847 19.2332 5.96557 19.3622 6.00952C19.4912 6.05347 19.6099 6.12333 19.711 6.21482C19.812 6.3063 19.8933 6.41748 19.9498 6.54151C20.0063 6.66555 20.0369 6.79983 20.0396 6.93611C20.0423 7.07239 20.0172 7.20778 19.9657 7.33398C19.9141 7.46018 19.8374 7.57452 19.7401 7.66997L10.6001 17.67C10.5077 17.7723 10.3952 17.8545 10.2696 17.9113C10.144 17.9681 10.0079 17.9983 9.87009 18H9.86009Z" fill="white"/>
</svg>
